<svg width="49" height="50" viewBox="0 0 49 50" fill="none" xmlns="http://www.w3.org/2000/svg">
<path d="M45.6789 0H22.3767C20.5528 0 19.0556 1.52778 19.0556 3.38889V13.8889H35.3889V30.5556H45.6789C47.5028 30.5556 49 29.0278 49 27.1667V3.38889C49 1.52778 47.5028 0 45.6789 0ZM25.6978 10.1944C23.8467 10.1944 22.3494 8.66667 22.3494 6.77778C22.3494 4.88889 23.8467 3.36111 25.6978 3.36111C26.5858 3.36111 27.4375 3.72108 28.0654 4.36183C28.6933 5.00258 29.0461 5.87162 29.0461 6.77778C29.0461 8.66667 27.5489 10.1944 25.6978 10.1944ZM42.3578 27.1667C40.5067 27.1944 39.0094 25.6667 38.9822 23.7778C38.955 21.8889 40.4522 20.3611 42.3033 20.3333C44.1544 20.3056 45.6517 21.8333 45.6789 23.7778C45.6517 25.6389 44.1817 27.1389 42.3578 27.1667ZM42.3578 10.1944C40.5067 10.2222 39.0094 8.69444 38.9822 6.80555C38.955 4.91667 40.4522 3.38889 42.3033 3.36111C44.1544 3.33333 45.6517 4.86111 45.6789 6.77778C45.6789 8.66667 44.2089 10.1667 42.3578 10.1944ZM3.32111 19.4444H26.6233C27.5041 19.4444 28.3489 19.8015 28.9717 20.437C29.5945 21.0726 29.9444 21.9345 29.9444 22.8333V46.6111C29.9444 48.4722 28.4472 50 26.6233 50H3.32111C1.49722 50 0 48.4722 0 46.6111V22.8333C0 20.9722 1.49722 19.4444 3.32111 19.4444ZM14.9722 31.3333C13.1483 31.3333 11.6511 32.8611 11.6511 34.7222C11.6511 36.5833 13.1483 38.1111 14.9722 38.1111C16.7961 38.1111 18.2933 36.5833 18.2933 34.7222C18.2933 33.8234 17.9434 32.9615 17.3206 32.3259C16.6978 31.6904 15.853 31.3333 14.9722 31.3333ZM6.64222 22.8333C4.81833 22.8333 3.32111 24.3611 3.32111 26.2222C3.32111 26.6673 3.40701 27.1079 3.57392 27.5191C3.74082 27.9303 3.98545 28.3038 4.29384 28.6185C4.60224 28.9332 4.96835 29.1828 5.37129 29.3531C5.77422 29.5235 6.20609 29.6111 6.64222 29.6111C8.46611 29.6111 9.96333 28.0833 9.96333 26.2222C9.96333 24.3611 8.46611 22.8333 6.64222 22.8333ZM23.275 39.8056C21.4511 39.8056 19.9539 41.3333 19.9539 43.1944C19.9539 45.0556 21.4511 46.5833 23.275 46.5833C24.1558 46.5833 25.0006 46.2263 25.6234 45.5907C26.2462 44.9552 26.5961 44.0932 26.5961 43.1944C26.5961 41.3333 25.1261 39.8333 23.3022 39.8056H23.275Z" fill="white"/>
</svg>
