<svg width="53" height="57" viewBox="0 0 53 57" fill="none" xmlns="http://www.w3.org/2000/svg">
<path d="M53 0V39.5833C53 42.5228 51.9714 45.3419 50.1404 47.4204C48.3095 49.499 45.8262 50.6667 43.2368 50.6667C40.6475 50.6667 38.1642 49.499 36.3332 47.4204C34.5023 45.3419 33.4737 42.5228 33.4737 39.5833C33.4737 36.6439 34.5023 33.8248 36.3332 31.7462C38.1642 29.6677 40.6475 28.5 43.2368 28.5C44.7432 28.5 46.1658 28.88 47.4211 29.5767V10.9883L19.5263 17.7333V45.9167C19.5263 48.8562 18.4977 51.6752 16.6668 53.7538C14.8358 55.8323 12.3525 57 9.76316 57C7.17381 57 4.69051 55.8323 2.85956 53.7538C1.02862 51.6752 0 48.8562 0 45.9167C0 42.9772 1.02862 40.1581 2.85956 38.0796C4.69051 36.001 7.17381 34.8333 9.76316 34.8333C11.2695 34.8333 12.6921 35.2133 13.9474 35.91V9.5L53 0Z" fill="white"/>
</svg>
