<svg width="56" height="50" viewBox="0 0 56 50" fill="none" xmlns="http://www.w3.org/2000/svg">
<path d="M5.6 5.55556H14L19.6 0H36.4L42 5.55556H50.4C51.8852 5.55556 53.3096 6.14087 54.3598 7.18274C55.41 8.22461 56 9.63769 56 11.1111V44.4444C56 45.9179 55.41 47.3309 54.3598 48.3728C53.3096 49.4147 51.8852 50 50.4 50H5.6C4.11479 50 2.69041 49.4147 1.6402 48.3728C0.589998 47.3309 0 45.9179 0 44.4444V11.1111C0 9.63769 0.589998 8.22461 1.6402 7.18274C2.69041 6.14087 4.11479 5.55556 5.6 5.55556ZM28 13.8889C24.287 13.8889 20.726 15.3522 18.1005 17.9569C15.475 20.5615 14 24.0942 14 27.7778C14 31.4613 15.475 34.994 18.1005 37.5987C20.726 40.2034 24.287 41.6667 28 41.6667C31.713 41.6667 35.274 40.2034 37.8995 37.5987C40.525 34.994 42 31.4613 42 27.7778C42 24.0942 40.525 20.5615 37.8995 17.9569C35.274 15.3522 31.713 13.8889 28 13.8889ZM28 19.4444C30.2278 19.4444 32.3644 20.3224 33.9397 21.8852C35.515 23.448 36.4 25.5676 36.4 27.7778C36.4 29.9879 35.515 32.1075 33.9397 33.6703C32.3644 35.2331 30.2278 36.1111 28 36.1111C25.7722 36.1111 23.6356 35.2331 22.0603 33.6703C20.485 32.1075 19.6 29.9879 19.6 27.7778C19.6 25.5676 20.485 23.448 22.0603 21.8852C23.6356 20.3224 25.7722 19.4444 28 19.4444Z" fill="white"/>
</svg>
