<svg width="61" height="54" viewBox="0 0 61 54" fill="none" xmlns="http://www.w3.org/2000/svg">
<path d="M30.5 17.125C32.8593 17.125 35.122 18.0622 36.7903 19.7305C38.4586 21.3988 39.3958 23.6615 39.3958 26.0208C39.3958 28.3802 38.4586 30.6428 36.7903 32.3111C35.122 33.9794 32.8593 34.9167 30.5 34.9167C28.1407 34.9167 25.878 33.9794 24.2097 32.3111C22.5414 30.6428 21.6042 28.3802 21.6042 26.0208C21.6042 23.6615 22.5414 21.3988 24.2097 19.7305C25.878 18.0622 28.1407 17.125 30.5 17.125ZM12.7083 23.4792C14.1317 23.4792 15.4533 23.8604 16.5971 24.5467C16.2158 28.1812 17.2833 31.7904 19.4692 34.6117C18.1983 37.0517 15.6567 38.7292 12.7083 38.7292C10.6861 38.7292 8.74661 37.9258 7.31664 36.4959C5.88668 35.0659 5.08333 33.1264 5.08333 31.1042C5.08333 29.0819 5.88668 27.1424 7.31664 25.7125C8.74661 24.2825 10.6861 23.4792 12.7083 23.4792ZM48.2917 23.4792C50.3139 23.4792 52.2534 24.2825 53.6834 25.7125C55.1133 27.1424 55.9167 29.0819 55.9167 31.1042C55.9167 33.1264 55.1133 35.0659 53.6834 36.4959C52.2534 37.9258 50.3139 38.7292 48.2917 38.7292C45.3433 38.7292 42.8017 37.0517 41.5308 34.6117C43.7167 31.7904 44.7842 28.1812 44.4029 24.5467C45.5467 23.8604 46.8683 23.4792 48.2917 23.4792ZM13.9792 49.5312C13.9792 44.27 21.3754 40 30.5 40C39.6246 40 47.0208 44.27 47.0208 49.5312V53.9792H13.9792V49.5312ZM0 53.9792V50.1667C0 46.6337 4.80375 43.66 11.3104 42.7958C9.81083 44.5242 8.89583 46.9133 8.89583 49.5312V53.9792H0ZM61 53.9792H52.1042V49.5312C52.1042 46.9133 51.1892 44.5242 49.6896 42.7958C56.1963 43.66 61 46.6337 61 50.1667V53.9792Z" fill="white"/>
<path d="M43 1.47204L29.2857 14L23 8.25802L24.6114 6.78598L29.2857 11.0455L41.3886 0L43 1.47204Z" fill="white"/>
</svg>
