<svg width="48" height="53" viewBox="0 0 48 53" fill="none" xmlns="http://www.w3.org/2000/svg">
<path d="M40 29.1515H38.1867L32.8533 34.4512H37.9467L42.6667 39.7508H5.33333L10.08 34.4512H15.5467L10.2133 29.1515H8L0 37.101V47.7003C0 49.1059 0.561903 50.4539 1.5621 51.4478C2.56229 52.4416 3.91885 53 5.33333 53H42.6667C44.0812 53 45.4377 52.4416 46.4379 51.4478C47.4381 50.4539 48 49.1059 48 47.7003V37.101L40 29.1515ZM37.3333 15.7698L24.1333 28.8865L14.6667 19.5061L27.8933 6.38944L37.3333 15.7698ZM26.0267 0.771795L9.04 17.6512C8 18.6847 8 20.3541 9.04 21.3875L22.24 34.4512C23.28 35.5376 24.96 35.5376 26 34.4512L42.96 17.6512C44 16.6178 44 14.9484 42.96 13.915L29.76 0.798294C28.7467 -0.26164 27.0667 -0.261639 26.0267 0.771795Z" fill="white"/>
</svg>
